/vscmnt/brussel_pixiu_data/_data_brussel/112/vsc11236/PredSimResults/SUBJ09opt3D/weighted-LRposFixed/expIG/worker_02.mot
version=1
nRows=9
nColumns=50
inDegrees=yes
endheader
                time	         pelvis_tilt	         pelvis_list	     pelvis_rotation	           pelvis_tx	           pelvis_ty	           pelvis_tz	       hip_flexion_r	     hip_adduction_r	      hip_rotation_r	        knee_angle_r	       ankle_angle_r	         mtp_angle_r	       hip_flexion_l	     hip_adduction_l	      hip_rotation_l	        knee_angle_l	       ankle_angle_l	         mtp_angle_l	    lumbar_extension	      lumbar_bending	     lumbar_rotation	 ercspn_r/activation	 intobl_r/activation	 extobl_r/activation	    abd_r/activation	    add_r/activation	hamstrings_r/activation	bifemsh_r/activation	glut_max_r/activation	iliopsoas_r/activation	rect_fem_r/activation	  vasti_r/activation	gastroc_r/activation	 soleus_r/activation	tib_ant_r/activation	 ercspn_l/activation	 intobl_l/activation	 extobl_l/activation	    abd_l/activation	    add_l/activation	hamstrings_l/activation	bifemsh_l/activation	glut_max_l/activation	iliopsoas_l/activation	rect_fem_l/activation	  vasti_l/activation	gastroc_l/activation	 soleus_l/activation	tib_ant_l/activation	
          1.30097409	         -4.08946071	         -0.90674639	          7.74004776	          1.52213969	          0.99144120	         -0.00171969	         28.37429638	         -1.19072282	         -7.94604129	         -5.22061894	          3.90147371	          0.22824421	        -13.06940672	         -2.25179348	         -5.20336807	        -10.42656106	          4.59936654	         36.26430664	        -13.49816806	         -1.71853398	         -7.77937429	          0.02889862	          0.17679054	          0.04091451	          0.01000020	          0.23677516	          0.05983992	          0.09653461	          0.03740950	          0.13180901	          0.01586472	          0.01000019	          0.01000011	          0.01000001	          0.32058443	          0.01000009	          0.01000001	          0.01000004	          0.03528719	          0.01000005	          0.01635208	          0.26553862	          0.01480757	          0.03418177	          0.01000014	          0.01000004	          0.32877266	          0.23813330	          0.01367307	
          1.31398383	         -4.14942318	         -1.01161458	          7.73967396	          1.54193105	          0.98917776	         -0.00094869	         28.33033516	         -0.99317939	         -8.22687019	         -6.86242168	          3.40670316	          0.21915368	        -13.68692971	         -2.57759656	         -5.65358633	        -11.17458826	          3.53952026	         37.90366823	        -12.97220906	         -1.25653914	         -7.94022706	          0.02374914	          0.14528792	          0.03362388	          0.01000002	          0.20184402	          0.05785826	          0.07933297	          0.11948648	          0.10832172	          0.01303776	          0.01000035	          0.01584061	          0.01561701	          0.33263289	          0.02740235	          0.01000007	          0.01000020	          0.02899930	          0.01216819	          0.03092530	          0.21822320	          0.01216899	          0.02809133	          0.01000009	          0.01000008	          0.30109579	          0.21740504	          0.01123665	
          1.32699357	         -4.18626206	         -1.15276789	          7.71123429	          1.56217283	          0.98709930	         -0.00013612	         28.14272297	         -0.79534439	         -8.44292602	         -8.49339877	          2.93140636	          0.20973867	        -14.15142858	         -2.96456255	         -6.12758967	        -12.26545040	          2.36054800	         39.52677430	        -12.41084564	         -0.74784163	         -8.06383962	          0.01951740	          0.11939880	          0.02763238	          0.09425326	          0.21425014	          0.05929353	          0.06519652	          0.12474456	          0.08901968	          0.01071455	          0.01000003	          0.01301795	          0.01283419	          0.38664098	          0.02251954	          0.01000001	          0.01000004	          0.02383186	          0.01000008	          0.02541474	          0.17933785	          0.01000059	          0.06913475	          0.01000010	          0.01000004	          0.26344109	          0.19069088	          0.01000000	
          1.34000331	         -4.20458904	         -1.29535566	          7.64856257	          1.58248558	          0.98544984	          0.00077878	         27.90639402	         -0.59340603	         -8.70244370	        -10.04095390	          2.28843250	          0.18355532	        -14.35927221	         -3.38490879	         -6.61607544	        -13.83319019	          1.04041381	         41.04068512	        -11.86173073	         -0.23853255	         -8.14921305	          0.03004318	          0.09812291	          0.02270852	          0.14591036	          0.23838287	          0.05780135	          0.05357906	          0.13795914	          0.07315710	          0.01000004	          0.04024285	          0.01069829	          0.01054726	          0.41853470	          0.04767078	          0.01000002	          0.01000002	          0.01958522	          0.01000017	          0.03363175	          0.14738140	          0.01000003	          0.07947813	          0.01000009	          0.01000005	          0.21649805	          0.15671134	          0.01000000	
          1.35301306	         -4.20627985	         -1.44351601	          7.55950062	          1.60255933	          0.98440852	          0.00179287	         27.72156788	         -0.38862296	         -8.96159940	        -11.72745460	          1.89671190	          0.14711422	        -14.22451264	         -3.85392462	         -7.11199554	        -15.99165295	         -0.37987798	         42.23273851	        -11.35692358	          0.27668541	         -8.19824016	          0.02669487	          0.08063821	          0.01866205	          0.18571498	          0.24392423	          0.05773569	          0.04403173	          0.16025005	          0.06012110	          0.01000005	          0.15337323	          0.01000008	          0.01000005	          0.43282386	          0.08251184	          0.01000006	          0.01000003	          0.01609529	          0.07911239	          0.04425589	          0.12111934	          0.01000002	          0.08404139	          0.01000004	          0.01000002	          0.17791986	          0.12878666	          0.01000000	
          1.36602280	         -4.19531599	         -1.59267276	          7.44804396	          1.62215071	          0.98416783	          0.00287798	         27.55502608	         -0.17542404	         -9.17748214	        -13.47672840	          1.86526792	          0.10776124	        -13.68472870	         -4.37270068	         -7.64825880	        -18.80522630	         -1.86025361	         42.78565874	        -10.91913209	          0.79388838	         -8.21155395	          0.02667583	          0.06626914	          0.01533663	          0.19765298	          0.26044155	          0.05642264	          0.03618567	          0.18173224	          0.04940801	          0.01000005	          0.21721183	          0.01000008	          0.01000004	          0.41624706	          0.09254632	          0.01000006	          0.01000003	          0.01322725	          0.15195884	          0.04533168	          0.09953700	          0.01000000	          0.06907598	          0.01000003	          0.01000001	          0.14621600	          0.10583793	          0.01000001	
          1.37903254	         -4.17455630	         -1.72204906	          7.31164295	          1.64115006	          0.98480150	          0.00399506	         27.33814736	          0.03587597	         -9.34311528	        -15.16057201	          2.22803043	          0.08622114	        -12.72152705	         -4.93164949	         -8.26009998	        -22.29741158	         -3.31194051	         42.29782712	        -10.55846857	          1.29181210	         -8.18565862	          0.02192267	          0.05446052	          0.01260378	          0.19641674	          0.26984448	          0.06039404	          0.02973770	          0.18520265	          0.04060391	          0.01000005	          0.26205944	          0.01000013	          0.01000010	          0.36354200	          0.09166051	          0.01000006	          0.01000003	          0.01087026	          0.21058615	          0.04748746	          0.08180061	          0.01000000	          0.05676737	          0.01000003	          0.01000000	          0.12016150	          0.08697848	          0.01000001	
          1.39204228	         -4.14608559	         -1.80948374	          7.14711714	          1.65955320	          0.98626730	          0.00510391	         26.98548949	          0.23776558	         -9.44052860	        -16.60785299	          2.89335297	          0.12721493	        -11.36872372	         -5.51849899	         -8.93107753	        -26.35440673	         -4.88598535	         40.80126967	        -10.27342095	          1.74785949	         -8.11662487	          0.01801628	          0.04475611	          0.01035791	          0.19265989	          0.26762937	          0.06341388	          0.02443872	          0.18653557	          0.03336863	          0.01000004	          0.28252214	          0.01000017	          0.01000010	          0.30586855	          0.07671854	          0.01000004	          0.01000004	          0.01000000	          0.26548109	          0.04699586	          0.06724654	          0.01000000	          0.04665195	          0.01000002	          0.01000000	          0.09874970	          0.07147962	          0.02470124	
          1.40505202	         -4.11081584	         -1.83533248	          6.95075015	          1.67737261	          0.98843689	          0.00616179	         26.43749846	          0.42019752	         -9.45096438	        -17.67558467	          3.62078571	          0.27592011	         -9.69105995	         -6.11383709	         -9.60848227	        -30.82717722	         -6.53512322	         38.12846712	        -10.06161683	          2.14296604	         -7.99760037	          0.01480596	          0.03678094	          0.01000005	          0.19781645	          0.21994171	          0.06440981	          0.02008397	          0.16440849	          0.02742261	          0.01000003	          0.28275998	          0.01000008	          0.01000003	          0.25472003	          0.07328862	          0.03769610	          0.01000054	          0.01000000	          0.23196561	          0.03862162	          0.05526389	          0.01000001	          0.03833899	          0.01000002	          0.01000000	          0.08115331	          0.05874254	          0.07785183	
